<?xml version="1.0" standalone="no"?>
<!DOCTYPE svg PUBLIC "-//W3C//DTD SVG 20010904//EN"
 "http://www.w3.org/TR/2001/REC-SVG-20010904/DTD/svg10.dtd">
<svg version="1.0" xmlns="http://www.w3.org/2000/svg"
 width="512.000000pt" height="512.000000pt" viewBox="0 0 512.000000 512.000000"
 preserveAspectRatio="xMidYMid meet">

<g transform="translate(0.000000,512.000000) scale(0.100000,-0.100000)"
fill="#000000" stroke="none">
<path d="M3153 4432 c-107 -38 -174 -106 -198 -200 -14 -53 6 -44 -195 -82
-516 -96 -963 -326 -1207 -622 -259 -314 -460 -829 -534 -1371 l-12 -88 -176
-122 c-97 -68 -250 -175 -341 -237 -323 -222 -449 -325 -476 -387 -20 -46 -17
-92 9 -137 45 -81 137 -102 233 -53 146 76 393 94 694 51 303 -43 471 -109
757 -296 84 -54 182 -112 217 -128 222 -101 544 -117 902 -45 429 87 862 353
1176 723 l72 84 100 -7 c56 -3 169 -14 251 -23 204 -23 304 -21 380 8 70 26
139 91 173 162 60 122 88 496 62 798 -45 509 -261 936 -630 1244 -174 146
-432 291 -667 377 l-122 44 -6 50 c-21 161 -143 263 -324 272 -66 3 -98 -1
-138 -15z m214 -171 c39 -18 82 -65 70 -77 -3 -3 -25 0 -48 7 -24 7 -92 13
-151 13 -60 0 -108 3 -108 6 0 11 45 49 70 59 41 16 122 12 167 -8z m-52 -262
c27 -17 76 -59 110 -93 185 -185 278 -434 307 -823 18 -235 -9 -567 -72 -898
-27 -141 -100 -438 -110 -448 -15 -17 -472 71 -875 168 -215 53 -664 159 -711
170 l-21 5 18 119 c105 685 371 1255 727 1553 149 126 304 210 472 258 89 25
99 25 155 -11z m-675 -66 c-69 -52 -277 -270 -336 -353 -241 -336 -414 -792
-500 -1313 -15 -89 -28 -163 -29 -165 -1 -1 -44 2 -95 8 -51 6 -183 11 -292
10 l-199 0 6 38 c79 481 208 850 399 1137 195 292 511 501 955 630 64 19 118
34 121 34 3 1 -11 -11 -30 -26z m1057 -14 c466 -173 808 -457 998 -831 139
-274 193 -555 182 -947 -6 -219 -27 -365 -60 -425 -44 -78 -103 -89 -344 -61
-70 8 -256 22 -413 30 -157 8 -297 18 -311 21 l-26 5 28 107 c16 59 42 170 58
247 164 785 122 1398 -124 1790 -30 47 -52 85 -50 85 2 0 30 -10 62 -21z
m-2027 -1974 c234 -27 358 -53 1085 -230 414 -100 765 -164 998 -181 53 -4 97
-11 97 -15 0 -15 -140 -158 -221 -225 -363 -302 -837 -469 -1284 -451 -71 3
-164 13 -205 22 -102 23 -233 86 -365 177 -148 100 -233 149 -338 193 -341
141 -894 183 -1169 90 -29 -10 -38 -11 -28 -2 59 47 209 154 415 295 132 91
292 201 355 246 88 62 125 82 160 87 86 12 376 9 500 -6z"/>
</g>
</svg>
